<svg width="29" height="30" viewBox="0 0 29 30" fill="none" xmlns="http://www.w3.org/2000/svg">
<g id="Group">
<path id="Vector" d="M17.8333 1.66675H11.1666C5.64663 1.66675 1.16663 6.14675 1.16663 11.6667C1.16663 16.0134 3.95329 19.7067 7.83329 21.0801V28.3334L14.5 21.6667H17.8333C23.3533 21.6667 27.8333 17.1867 27.8333 11.6667C27.8333 6.14675 23.3533 1.66675 17.8333 1.66675Z" fill="white" stroke="#3913B8" stroke-width="1.5" stroke-miterlimit="10" stroke-linecap="round" stroke-linejoin="round"/>
<path id="Vector_2" d="M14.5 17.6667H14.5133" stroke="#00CFFD" stroke-width="1.5" stroke-miterlimit="10" stroke-linecap="round" stroke-linejoin="round"/>
<path id="Vector_3" d="M11.8333 8.38675C11.8866 8.00008 12.0466 7.28008 12.5799 6.64008C12.7266 6.46675 12.9799 6.16008 13.4199 5.93341C13.9399 5.66675 14.4199 5.66675 14.6333 5.66675C14.8866 5.66675 15.4466 5.69341 16.0333 6.08008C16.7533 6.56008 16.9799 7.25341 17.0466 7.46675C17.0866 7.57341 17.2866 8.28008 17.0466 9.09342C16.8999 9.60008 16.6333 9.92008 16.3933 10.1867C15.4599 11.2934 14.6466 11.2001 14.4999 11.9201C14.4866 11.9734 14.4999 12.3734 14.4999 13.1601C14.4999 13.3734 14.4999 13.5467 14.4999 13.6667" stroke="#00CFFD" stroke-width="1.5" stroke-miterlimit="10" stroke-linecap="round" stroke-linejoin="round"/>
</g>
</svg>
